# xmcd
#
# Track frame offsets:
# 150
# 2689
# 16455
# 28737
# 46052
# 63352
# 77642
# 91242
# 107212
# 123855
# 136835
# 154497
# 169292
# 185137
# 197915
# 214465
# 241735
# 258552
#
# Disc length: 3688 seconds
#
#
# Revision: 4
# Processed by: cddbd v1.5.1PL2 Copyright (c) Steve Scherf et al.
# Submitted via: FreeRIP 2.945 
#
DISCID=f90e6612
DTITLE=John Conlee - Live At Billy Bob's Texas
DYEAR=2001
DGENRE=Country
TTITLE0=Intro
TTITLE1=Common Man
TTITLE2=Busted
TTITLE3=Domestic Life
TTITLE4=Old School
TTITLE5=Lady Lay Down
TTITLE6=Dog House
TTITLE7=Miss Emily's Picture
TTITLE8=I Don't Remember Loving You
TTITLE9=The Carpenter
TTITLE10=Backside Of Thirty
TTITLE11=As Long As I'm Rockin' With You
TTITLE12=Friday Night Blues
TTITLE13=Lay Around  And Love You
TTITLE14=Rose Colored Glasses
TTITLE15=The Night Life - Please Help Me Find Someone To Love
TTITLE16=Got My Heart Set On You
TTITLE17=I'm Only In It For The Love
EXTD=Smith Music Group
EXTT0=
EXTT1=
EXTT2=
EXTT3=
EXTT4=
EXTT5=
EXTT6=
EXTT7=
EXTT8=
EXTT9=
EXTT10=
EXTT11=
EXTT12=
EXTT13=
EXTT14=
EXTT15=
EXTT16=
EXTT17=
PLAYORDER=
